<svg xmlns="http://www.w3.org/2000/svg" viewBox="0 0 448 512"><!--!Font Awesome Free 6.5.2 by @fontawesome - https://fontawesome.com License - https://fontawesome.com/license/free Copyright 2024 Fonticons, Inc.--><path fill="#65625e" d="M91.4 484c-.3-16 13.1-29.1 29.1-29.1h62.3v-5.7H57c-16 0-29.4-13.1-29.1-29.1C28.2 404.5 40.8 392 56.4 392h126.4v-5.7H29.1c-16 0-29.4-13.1-29.1-29.1 .3-15.5 13-28 28.6-28h154.3v-5.7H57.7c-16 0-29.4-13.1-29.1-29.1 .3-15.5 13-28 28.6-28h168.6l-31.1-22.6c-12.8-9.3-15.6-27.1-6.3-39.9 9.3-12.8 27.2-15.6 39.9-6.3l123.4 89.7a34.3 34.3 0 0 1 14.1 27.7v141.1c0 15.9-10.9 29.7-26.4 33.4l-80.5 18.9a137.2 137.2 0 0 1 -31.4 3.6H120c-15.6 0-28.3-12.5-28.6-28zm73.2-225.7h36.4l-11.2-8.1c-18.6-13.5-20.3-40.9-3.2-56.5l-13-16.7c-9.8-12.6-28.4-15.2-40.9-5.1-12.1 9.8-14.1 27.4-4.6 39.8l36.4 46.7zm283.3-2.1l-5-152.5c-.5-15.8-13.7-28.1-29.5-27.6-15.8 .5-28.1 13.7-27.6 29.5l1.3 38.4L283.6 11c-9.6-12.3-27.2-14.6-39.7-5.3-12.8 9.6-14.9 28.2-5.1 40.9l76.9 98.7-4.5 3.5-94.8-121.7c-9.6-12.3-27.2-14.6-39.7-5.3-12.8 9.6-14.9 28.2-5.1 40.9l94.4 121.3-4.5 3.5-77.7-99.8c-9.6-12.3-27.2-14.6-39.7-5.3-12.8 9.6-14.9 28.2-5.1 40.9l52.1 66.8c12.5-8.3 29.1-8.3 41.7 .9l123.4 89.7c10.9 7.9 17.4 20.7 17.4 34.2v17l61.1-47.5a34.3 34.3 0 0 0 13.2-28.2z"/></svg>