<svg xmlns="http://www.w3.org/2000/svg" viewBox="0 0 256 512"><!--!Font Awesome Free 6.5.2 by @fontawesome - https://fontawesome.com License - https://fontawesome.com/license/free Copyright 2024 Fonticons, Inc.--><path fill="#65625e" d="M128 0c35.3 0 64 28.7 64 64s-28.7 64-64 64c-35.3 0-64-28.7-64-64S92.7 0 128 0m119.3 354.2l-48-192A24 24 0 0 0 176 144h-11.4c-22.7 10.4-49.6 10.9-73.3 0H80a24 24 0 0 0 -23.3 18.2l-48 192C4.9 369.3 16.4 384 32 384h56v104c0 13.3 10.7 24 24 24h32c13.3 0 24-10.7 24-24V384h56c15.6 0 27.1-14.7 23.3-29.8z"/></svg>